<svg xmlns="http://www.w3.org/2000/svg" width="453" height="127" fill="none" viewBox="0 0 453 127">
  <path fill="#2F2F2F" d="M22.176 94.36c-2.784 0-5.928-.24-9.432-.72-1.92-.24-3.24-.744-3.96-1.512-.72-.768-1.032-2.016-.936-3.744.336-4.752 1.128-10.608 2.376-17.568 1.248-7.008 2.76-13.752 4.536-20.232.336-1.2 1.008-2.04 2.016-2.52s2.328-.72 3.96-.72c2.928 0 4.392.816 4.392 2.448 0 .672-.144 1.44-.432 2.304-1.248 3.84-2.496 9-3.744 15.48-1.248 6.432-2.136 12.576-2.664 18.432 1.44.144 3.072.216 4.896.216 8.4 0 14.664-2.544 18.792-7.632 4.176-5.088 6.264-11.88 6.264-20.376 0-5.712-1.632-10.128-4.896-13.248-3.264-3.12-7.872-4.68-13.824-4.68-3.84 0-7.656.6-11.448 1.8-3.744 1.2-7.128 2.784-10.152 4.752a3.474 3.474 0 01-2.016.648c-.816 0-1.464-.336-1.944-1.008-.48-.72-.72-1.584-.72-2.592 0-1.152.192-2.088.576-2.808.384-.768 1.032-1.464 1.944-2.088 3.312-2.256 7.2-3.96 11.664-5.112 4.464-1.2 8.76-1.8 12.888-1.8 5.856 0 10.92 1.032 15.192 3.096 4.272 2.016 7.56 4.992 9.864 8.928 2.304 3.936 3.456 8.688 3.456 14.256 0 7.248-1.44 13.584-4.32 19.008-2.88 5.376-7.08 9.552-12.6 12.528-5.52 2.976-12.096 4.464-19.728 4.464zm48.917 0c-2.976 0-5.352-1.08-7.128-3.24-1.776-2.16-2.664-4.992-2.664-8.496 0-3.84.888-7.464 2.664-10.872 1.776-3.456 4.128-6.216 7.056-8.28 2.976-2.112 6.12-3.168 9.432-3.168 1.056 0 1.752.216 2.088.648.384.384.696 1.104.936 2.16a16.905 16.905 0 013.168-.288c2.352 0 3.528.84 3.528 2.52 0 1.008-.36 3.408-1.08 7.2-1.104 5.52-1.656 9.36-1.656 11.52 0 .72.168 1.296.504 1.728.384.432.864.648 1.44.648.912 0 2.016-.576 3.312-1.728 1.296-1.2 3.048-3.12 5.256-5.76.576-.672 1.224-1.008 1.944-1.008.624 0 1.104.288 1.44.864.384.576.576 1.368.576 2.376 0 1.92-.456 3.408-1.368 4.464-1.968 2.448-4.056 4.512-6.264 6.192-2.208 1.68-4.344 2.52-6.408 2.52-1.584 0-3.048-.528-4.392-1.584-1.296-1.104-2.28-2.592-2.952-4.464-2.496 4.032-5.64 6.048-9.432 6.048zm2.592-7.272c1.056 0 2.064-.624 3.024-1.872.96-1.248 1.656-2.904 2.088-4.968L81.461 67c-2.016.048-3.888.816-5.616 2.304-1.68 1.44-3.024 3.36-4.032 5.76s-1.512 4.944-1.512 7.632c0 1.488.288 2.592.864 3.312.624.72 1.464 1.08 2.52 1.08zm59.237-9c.624 0 1.104.312 1.44.936.384.576.576 1.32.576 2.232 0 1.104-.168 1.968-.504 2.592-.336.624-.864 1.176-1.584 1.656-4.128 2.784-7.152 4.848-9.072 6.192l-4.608 3.096c-1.824 9.936-4.224 17.736-7.2 23.4-2.928 5.712-6.672 8.568-11.232 8.568-2.448 0-4.44-.768-5.976-2.304-1.536-1.488-2.304-3.456-2.304-5.904 0-3.408 1.344-7.08 4.032-11.016 2.688-3.888 7.728-8.688 15.12-14.4l.432-2.808a8.526 8.526 0 01-3.24 3.024c-1.296.672-2.592 1.008-3.888 1.008-2.976 0-5.352-1.08-7.128-3.24-1.776-2.16-2.664-4.992-2.664-8.496 0-3.84.888-7.464 2.664-10.872 1.776-3.456 4.128-6.216 7.056-8.28 2.976-2.112 6.12-3.168 9.432-3.168 1.056 0 1.752.216 2.088.648.384.384.696 1.104.936 2.16.912-.192 1.968-.288 3.168-.288 1.2 0 2.04.192 2.52.576.528.336.792 1.032.792 2.088 0 .576-.024 1.032-.072 1.368-.192 1.488-.792 5.256-1.8 11.304a697.562 697.562 0 01-.648 3.816 334.617 334.617 0 01-.648 4.32c3.696-2.88 7.248-5.424 10.656-7.632.624-.384 1.176-.576 1.656-.576zm-25.416 9c1.104 0 2.16-.672 3.168-2.016 1.008-1.344 1.728-3.264 2.16-5.76L115.138 67c-1.968.048-3.792.816-5.472 2.304-1.68 1.44-3.024 3.36-4.032 5.76s-1.512 4.944-1.512 7.632c0 1.488.288 2.592.864 3.312.624.72 1.464 1.08 2.52 1.08zm-5.976 32.688c1.2 0 2.544-1.44 4.032-4.32 1.536-2.88 3-7.464 4.392-13.752-3.696 3.168-6.36 6.024-7.992 8.568-1.632 2.544-2.448 4.776-2.448 6.696 0 .816.144 1.488.432 2.016.336.528.864.792 1.584.792zm33.319-25.416c-1.824 0-3.12-.96-3.888-2.88-.72-1.92-1.08-4.992-1.08-9.216 0-6.24.888-12.168 2.664-17.784.432-1.392 1.128-2.4 2.088-3.024 1.008-.672 2.4-1.008 4.176-1.008.96 0 1.632.12 2.016.36.384.24.576.696.576 1.368 0 .768-.36 2.496-1.08 5.184-.48 1.92-.864 3.6-1.152 5.04-.288 1.392-.528 3.144-.72 5.256 1.296-3.744 2.832-6.912 4.608-9.504 1.824-2.592 3.672-4.512 5.544-5.76 1.92-1.296 3.72-1.944 5.4-1.944 1.68 0 2.856.384 3.528 1.152.72.768 1.08 1.944 1.08 3.528 0 1.536-.456 4.32-1.368 8.352-.384 1.728-.648 3.024-.792 3.888 2.4-5.904 5.064-10.2 7.992-12.888 2.928-2.688 5.664-4.032 8.208-4.032 3.12 0 4.68 1.56 4.68 4.68 0 1.872-.528 5.256-1.584 10.152-.912 4.176-1.368 6.936-1.368 8.28 0 1.92.696 2.88 2.088 2.88.96 0 2.088-.576 3.384-1.728 1.344-1.2 3.12-3.12 5.328-5.76.576-.672 1.224-1.008 1.944-1.008.624 0 1.104.288 1.44.864.384.576.576 1.368.576 2.376 0 1.92-.456 3.408-1.368 4.464-2.064 2.544-4.296 4.632-6.696 6.264-2.352 1.632-5.04 2.448-8.064 2.448-2.448 0-4.296-.696-5.544-2.088-1.248-1.44-1.872-3.504-1.872-6.192 0-1.344.336-3.744 1.008-7.2.624-3.024.936-5.112.936-6.264 0-.768-.264-1.152-.792-1.152-.624 0-1.512.816-2.664 2.448-1.152 1.584-2.304 3.696-3.456 6.336a51.718 51.718 0 00-2.808 8.352c-.528 2.304-1.152 3.84-1.872 4.608-.672.768-1.776 1.152-3.312 1.152-1.584 0-2.784-.744-3.6-2.232-.768-1.536-1.152-3.384-1.152-5.544 0-1.824.24-4.464.72-7.92.384-3.072.576-5.088.576-6.048 0-.768-.264-1.152-.792-1.152-.72 0-1.632.864-2.736 2.592-1.104 1.728-2.184 3.936-3.24 6.624a67.705 67.705 0 00-2.448 7.92c-.528 2.256-1.152 3.792-1.872 4.608-.672.768-1.752 1.152-3.24 1.152zm57.322 0c-2.976 0-5.352-1.08-7.128-3.24-1.776-2.16-2.664-4.992-2.664-8.496 0-3.84.888-7.464 2.664-10.872 1.776-3.456 4.128-6.216 7.056-8.28 2.976-2.112 6.12-3.168 9.432-3.168 1.056 0 1.752.216 2.088.648.384.384.696 1.104.936 2.16a16.905 16.905 0 013.168-.288c2.352 0 3.528.84 3.528 2.52 0 1.008-.36 3.408-1.08 7.2-1.104 5.52-1.656 9.36-1.656 11.52 0 .72.168 1.296.504 1.728.384.432.864.648 1.44.648.912 0 2.016-.576 3.312-1.728 1.296-1.2 3.048-3.12 5.256-5.76.576-.672 1.224-1.008 1.944-1.008.624 0 1.104.288 1.44.864.384.576.576 1.368.576 2.376 0 1.92-.456 3.408-1.368 4.464-1.968 2.448-4.056 4.512-6.264 6.192-2.208 1.68-4.344 2.52-6.408 2.52-1.584 0-3.048-.528-4.392-1.584-1.296-1.104-2.28-2.592-2.952-4.464-2.496 4.032-5.64 6.048-9.432 6.048zm2.592-7.272c1.056 0 2.064-.624 3.024-1.872.96-1.248 1.656-2.904 2.088-4.968L202.539 67c-2.016.048-3.888.816-5.616 2.304-1.68 1.44-3.024 3.36-4.032 5.76s-1.512 4.944-1.512 7.632c0 1.488.288 2.592.864 3.312.624.72 1.464 1.08 2.52 1.08zm51.461-16.776c1.056 0 1.944.384 2.664 1.152.768.72 1.152 1.632 1.152 2.736 0 .624-.144 1.296-.432 2.016-.768 1.776-1.848 3.264-3.24 4.464-1.392 1.2-2.928 1.8-4.608 1.8-1.344 0-2.496-.48-3.456-1.44-.912-.96-1.368-2.256-1.368-3.888 0-.912.048-1.896.144-2.952.096-.768.144-1.296.144-1.584 0-.384-.096-.672-.288-.864a.684.684 0 00-.576-.288c-.672 0-1.584.816-2.736 2.448-1.152 1.584-2.304 3.696-3.456 6.336a51.718 51.718 0 00-2.808 8.352c-.528 2.304-1.128 3.84-1.8 4.608-.672.768-1.776 1.152-3.312 1.152-1.824 0-3.12-.96-3.888-2.88-.72-1.92-1.08-4.992-1.08-9.216 0-6.24.888-12.168 2.664-17.784.432-1.392 1.128-2.4 2.088-3.024 1.008-.672 2.4-1.008 4.176-1.008.96 0 1.632.12 2.016.36.384.24.576.696.576 1.368 0 .768-.36 2.496-1.08 5.184-.48 1.92-.864 3.6-1.152 5.04-.288 1.44-.528 3.216-.72 5.328 1.584-4.128 3.36-7.488 5.328-10.08 1.968-2.592 3.888-4.44 5.76-5.544 1.872-1.104 3.576-1.656 5.112-1.656 1.392 0 2.448.408 3.168 1.224.768.768 1.152 1.92 1.152 3.456 0 .912-.264 2.64-.792 5.184h.648zM291.441 52.27c.821 0 1.407.175 1.758.527.352.351.528.937.528 1.758V69.39c0 .773-.329 1.336-.985 1.687-.633.352-1.617.528-2.953.528-1.289 0-2.191-.165-2.707-.493-.492-.351-.738-.925-.738-1.722v-9.563h-6.364v26.965h7.594c.563 0 .996.105 1.301.316.305.188.527.54.668 1.055.164.516.246 1.266.246 2.25s-.082 1.734-.246 2.25c-.141.516-.363.867-.668 1.055-.305.187-.738.281-1.301.281h-23.976c-.563 0-.996-.094-1.301-.281-.305-.188-.539-.54-.703-1.055-.141-.516-.211-1.266-.211-2.25s.07-1.734.211-2.25c.164-.516.398-.867.703-1.055.305-.21.738-.316 1.301-.316h7.593V59.828h-6.363v9.563c0 .773-.328 1.336-.984 1.687-.633.352-1.617.528-2.953.528-1.289 0-2.192-.165-2.707-.493-.493-.351-.739-.925-.739-1.722V54.555c0-.82.176-1.407.528-1.758.375-.352.961-.527 1.757-.527h31.711zm20.609 8.472c3.562 0 6.598.774 9.105 2.32 2.508 1.524 4.395 3.657 5.661 6.399 1.289 2.719 1.933 5.836 1.933 9.352 0 .796-.176 1.359-.527 1.687-.328.328-.891.492-1.688.492h-22.57c.445 1.875 1.395 3.317 2.848 4.324 1.476.985 3.34 1.477 5.59 1.477 3.632 0 7.57-.645 11.812-1.934.281-.093.563-.14.844-.14.515 0 .961.234 1.336.703.375.469.715 1.266 1.019 2.39.235.868.352 1.606.352 2.215 0 .61-.141 1.09-.422 1.442-.258.328-.691.597-1.301.808a53.573 53.573 0 01-7.172 1.829 39.854 39.854 0 01-7.172.667c-3.562 0-6.632-.726-9.211-2.18-2.578-1.452-4.546-3.456-5.906-6.011-1.336-2.578-2.004-5.52-2.004-8.824 0-3.281.703-6.211 2.11-8.79 1.406-2.577 3.433-4.593 6.082-6.046 2.648-1.453 5.742-2.18 9.281-2.18zm0 7.98c-4.289 0-6.938 1.805-7.945 5.415h15.468c-.398-1.711-1.253-3.035-2.566-3.973-1.289-.96-2.941-1.441-4.957-1.441zm47.468-7.98c1.453 0 2.449.164 2.988.492.539.328.809.903.809 1.723v11.285c0 .797-.363 1.371-1.09 1.723-.703.328-1.887.492-3.551.492-1.101 0-1.957-.07-2.566-.21-.586-.165-.996-.4-1.231-.704-.234-.305-.351-.738-.351-1.3 0-.985-.246-1.9-.739-2.743-.468-.844-1.183-1.512-2.144-2.004-.938-.515-2.074-.773-3.41-.773-1.688 0-3.164.375-4.43 1.125-1.266.726-2.25 1.78-2.953 3.164-.68 1.36-1.02 2.941-1.02 4.746 0 1.805.34 3.398 1.02 4.781.703 1.36 1.687 2.414 2.953 3.164 1.266.727 2.742 1.09 4.43 1.09 1.804 0 3.644-.293 5.519-.879a26.714 26.714 0 005.52-2.426c.422-.234.808-.351 1.16-.351 1.055 0 1.98.925 2.777 2.777.422 1.008.633 1.863.633 2.567 0 1.054-.504 1.863-1.512 2.425a31.62 31.62 0 01-6.89 2.848 26.241 26.241 0 01-7.207 1.02c-3.563 0-6.692-.727-9.387-2.18-2.695-1.453-4.781-3.469-6.258-6.047-1.453-2.578-2.179-5.508-2.179-8.79 0-3.28.738-6.21 2.214-8.788 1.477-2.602 3.481-4.617 6.012-6.047 2.555-1.453 5.402-2.18 8.543-2.18 3.797 0 6.481 1.371 8.051 4.114v-1.899c0-.797.34-1.36 1.019-1.688.68-.351 1.77-.527 3.27-.527zm16.249-12.867c.797 0 1.36.176 1.688.527.351.328.527.891.527 1.688v17.086c2.813-4.29 6.211-6.434 10.195-6.434 2.133 0 3.996.469 5.59 1.406 1.617.938 2.86 2.274 3.727 4.008.867 1.711 1.301 3.727 1.301 6.047v14.59h2.707c.562 0 .996.105 1.3.316.305.188.528.54.668 1.055.164.516.246 1.266.246 2.25s-.082 1.734-.246 2.25c-.14.516-.363.867-.668 1.055-.304.187-.738.281-1.3.281h-13.149c-.562 0-.996-.094-1.301-.281-.304-.188-.539-.54-.703-1.055-.14-.516-.211-1.266-.211-2.25s.071-1.734.211-2.25c.164-.516.399-.867.703-1.055.305-.21.739-.316 1.301-.316h1.652V74.277c0-1.828-.316-3.21-.949-4.148-.633-.938-1.687-1.406-3.164-1.406-1.359 0-2.648.574-3.867 1.722-1.219 1.125-2.203 2.637-2.953 4.536-.727 1.898-1.09 3.925-1.09 6.082v5.73h1.652c.563 0 .996.105 1.301.316.305.188.528.54.668 1.055.164.516.246 1.266.246 2.25s-.082 1.734-.246 2.25c-.14.516-.363.867-.668 1.055-.305.187-.738.281-1.301.281h-13.148c-.563 0-.996-.094-1.301-.281-.305-.188-.539-.54-.703-1.055-.141-.516-.211-1.266-.211-2.25s.07-1.734.211-2.25c.164-.516.398-.867.703-1.055.305-.21.738-.316 1.301-.316h2.707V55.082h-3.41c-.563 0-.996-.094-1.301-.281-.305-.188-.539-.54-.703-1.055-.141-.516-.211-1.266-.211-2.25s.07-1.734.211-2.25c.164-.516.398-.867.703-1.055.305-.21.738-.316 1.301-.316h9.984z"/>
  <rect width="35" height="8" x="409" y="86" fill="#2F2F2F" rx="2"/>
</svg>
